<svg id="그룹_1_복사" data-name="그룹 1 복사" xmlns="http://www.w3.org/2000/svg" width="700" height="110" viewBox="0 0 700 110">
  <defs>
    <style>
      .cls-1 {
        fill: #730f27;
      }

      .cls-1, .cls-2, .cls-3, .cls-4, .cls-5 {
        fill-rule: evenodd;
      }

      .cls-2 {
        fill: #b3565d;
      }

      .cls-3 {
        fill: #d399a3;
      }

      .cls-4 {
        fill: #eccdd8;
      }

      .cls-5 {
        fill: #333;
      }
    </style>
  </defs>
  <path id="M" class="cls-1" d="M30.35,97.685V26.591L54.5,97.685h9.969l24.268-69.9v69.9H99.393V14.172H84.525l-20,58.106q-3.02,8.831-4.443,13.387Q58.832,81.563,56.1,73.3L36.331,14.172H19.7V97.685H30.35Z"/>
  <path id="I" class="cls-2" d="M120.35,98.187V14.675H109.3V98.187H120.35Z"/>
  <path id="I-2" data-name="I" class="cls-3" d="M141.428,97.539V14.027H130.377V97.539h11.051Z"/>
  <path id="L" class="cls-4" d="M202.746,98V88.147h-41.13V14.49H150.565V98h52.181Z"/>
  <path id="Multimodal" class="cls-5" d="M227.2,48.341V30.291q0-1.45-.1-3.25t-0.225-3.575q-0.126-1.774-.275-3.225h0.2l2.55,7.9,6.15,16.95h3.05l6.15-16.95,2.55-7.9h0.2q-0.15,1.451-.275,3.225t-0.225,3.575q-0.1,1.8-.1,3.25v18.05h3.9v-32.8h-5.2l-6.2,17.55q-0.551,1.65-1.05,3.3t-1.05,3.5h-0.2q-0.55-1.849-1.075-3.5t-1.125-3.3l-6.2-17.55H223.4v32.8h3.8Zm42.424-.6a14.847,14.847,0,0,0,3.575-3.2h0.15l0.35,3.8h3.4v-24.3H273v17.25a15.806,15.806,0,0,1-3.225,3.075,5.9,5.9,0,0,1-3.325.975,3.953,3.953,0,0,1-3.475-1.525,8.726,8.726,0,0,1-1.075-4.925V24.041h-4.1v15.4q0,4.65,1.775,7.075t5.625,2.425A8.188,8.188,0,0,0,269.622,47.741Zm20.15,0.925a10.03,10.03,0,0,0,1.025-.275l-0.6-3.1c-0.2.034-.359,0.059-0.475,0.075a2.584,2.584,0,0,1-.375.025,1.118,1.118,0,0,1-.85-0.375,2.033,2.033,0,0,1-.35-1.375v-30.9h-4.1v30.6a8.662,8.662,0,0,0,.45,2.975,3.621,3.621,0,0,0,1.4,1.85,4.481,4.481,0,0,0,2.5.625A6.6,6.6,0,0,0,289.772,48.666Zm15.874-.175a11.575,11.575,0,0,0,2.15-.75l-0.9-2.9a5.125,5.125,0,0,1-1.4.475,7.659,7.659,0,0,1-1.35.125,3.24,3.24,0,0,1-2.925-1.25,6.211,6.211,0,0,1-.825-3.45V27.391H307v-3.35h-6.6v-7.8h-3.45l-0.5,7.8-3.8.25v3.1h3.6v13.3a10.11,10.11,0,0,0,1.55,5.85q1.55,2.25,5.4,2.25A10.065,10.065,0,0,0,305.646,48.491Zm9.65-.15v-24.3h-4.1v24.3h4.1Zm-0.075-30.05a2.591,2.591,0,0,0,.775-1.95,2.591,2.591,0,0,0-.775-1.95,2.975,2.975,0,0,0-3.95,0,2.591,2.591,0,0,0-.775,1.95,2.591,2.591,0,0,0,.775,1.95A2.975,2.975,0,0,0,315.221,18.291ZM326.4,48.341v-17.6q3.349-3.75,6.1-3.75a3.968,3.968,0,0,1,3.45,1.525q1.1,1.526,1.1,4.975v14.85h4.1v-17.6a15.529,15.529,0,0,1,3.175-2.825,5.479,5.479,0,0,1,2.925-.925,3.912,3.912,0,0,1,3.4,1.525q1.1,1.526,1.1,4.975v14.85h4.1v-15.4q0-4.65-1.8-7.075t-5.6-2.425a7.452,7.452,0,0,0-4.15,1.275,20.074,20.074,0,0,0-3.85,3.375,7.279,7.279,0,0,0-2.325-3.4,6.872,6.872,0,0,0-4.375-1.25,7.414,7.414,0,0,0-4.075,1.2,18.355,18.355,0,0,0-3.475,2.9h-0.15l-0.35-3.5h-3.4v24.3h4.1Zm51.1-.9a11.178,11.178,0,0,0,4.125-4.35,13.962,13.962,0,0,0,1.575-6.85,14.188,14.188,0,0,0-1.575-6.95,11.178,11.178,0,0,0-4.125-4.35,10.971,10.971,0,0,0-11.075,0,11.116,11.116,0,0,0-4.15,4.35,14.188,14.188,0,0,0-1.575,6.95,13.962,13.962,0,0,0,1.575,6.85,11.116,11.116,0,0,0,4.15,4.35A10.971,10.971,0,0,0,377.5,47.441Zm-9.225-3.075a7.626,7.626,0,0,1-2.45-3.275,12.516,12.516,0,0,1-.875-4.85,12.851,12.851,0,0,1,.875-4.925,7.614,7.614,0,0,1,2.45-3.3,5.981,5.981,0,0,1,3.675-1.175,6.089,6.089,0,0,1,3.7,1.175,7.374,7.374,0,0,1,2.45,3.3,13.213,13.213,0,0,1,.85,4.925,12.867,12.867,0,0,1-.85,4.85,7.384,7.384,0,0,1-2.45,3.275,6.084,6.084,0,0,1-3.7,1.175A5.975,5.975,0,0,1,368.271,44.366Zm32.424,3.55a14.048,14.048,0,0,0,3.3-2.425h0.15l0.35,2.85h3.4v-35.6h-4.15v9.35l0.2,4.15a14.709,14.709,0,0,0-3.125-2.075,8.511,8.511,0,0,0-3.675-.725,9.406,9.406,0,0,0-5.2,1.55,11.212,11.212,0,0,0-3.875,4.425,14.784,14.784,0,0,0-1.475,6.825q0,6.05,2.725,9.375a8.979,8.979,0,0,0,7.325,3.325A8.411,8.411,0,0,0,400.7,47.916Zm-8.1-4.9a11.649,11.649,0,0,1-1.75-6.825,11.624,11.624,0,0,1,.95-4.875,8.22,8.22,0,0,1,2.525-3.25,5.755,5.755,0,0,1,3.525-1.175,7.952,7.952,0,0,1,2.95.575,9.627,9.627,0,0,1,2.95,1.975v12.7a12.425,12.425,0,0,1-3,2.5,6.384,6.384,0,0,1-3.2.85A5.708,5.708,0,0,1,392.6,43.016Zm32.15,4.9a20.528,20.528,0,0,0,3.75-2.475h0.15l0.35,2.9h3.4v-14.9a14.6,14.6,0,0,0-.875-5.3,7.1,7.1,0,0,0-2.75-3.475,8.674,8.674,0,0,0-4.825-1.225,14.076,14.076,0,0,0-3.7.475,18.8,18.8,0,0,0-3.25,1.2,20.362,20.362,0,0,0-2.6,1.475l1.6,2.8a20.411,20.411,0,0,1,3.3-1.725,10.122,10.122,0,0,1,3.95-.775,4.882,4.882,0,0,1,3.05.85,4.377,4.377,0,0,1,1.525,2.25,11.272,11.272,0,0,1,.475,2.9q-7.8.851-11.4,2.95a6.757,6.757,0,0,0-3.6,6.2,6.9,6.9,0,0,0,.95,3.725,6.363,6.363,0,0,0,2.575,2.35,7.889,7.889,0,0,0,3.625.825A9.3,9.3,0,0,0,424.745,47.916Zm-6.15-3.25a3.258,3.258,0,0,1-1.25-2.875,3.939,3.939,0,0,1,1.05-2.75,7.916,7.916,0,0,1,3.425-1.925,35.655,35.655,0,0,1,6.475-1.275v6.55a16.168,16.168,0,0,1-3.325,2.35,7.345,7.345,0,0,1-3.375.8A5.1,5.1,0,0,1,418.6,44.666Zm25.925,4a10.03,10.03,0,0,0,1.025-.275l-0.6-3.1c-0.2.034-.359,0.059-0.475,0.075a2.584,2.584,0,0,1-.375.025,1.118,1.118,0,0,1-.85-0.375,2.033,2.033,0,0,1-.35-1.375v-30.9h-4.1v30.6a8.662,8.662,0,0,0,.45,2.975,3.621,3.621,0,0,0,1.4,1.85,4.481,4.481,0,0,0,2.5.625A6.6,6.6,0,0,0,444.52,48.666Z"/>
  <path id="Interactive" class="cls-5" d="M471.148,48.442v-32.8H467v32.8h4.15Zm12.3,0v-17.6a20.943,20.943,0,0,1,3.325-2.8,6.008,6.008,0,0,1,3.325-.95,4.014,4.014,0,0,1,3.525,1.525,8.852,8.852,0,0,1,1.075,4.975v14.85h4.1v-15.4q0-4.65-1.775-7.075T491.4,23.542a8.454,8.454,0,0,0-4.45,1.175,19.4,19.4,0,0,0-3.7,2.925H483.1l-0.35-3.5h-3.4v24.3h4.1Zm32.949,0.15a11.575,11.575,0,0,0,2.15-.75l-0.9-2.9a5.125,5.125,0,0,1-1.4.475,7.659,7.659,0,0,1-1.35.125,3.24,3.24,0,0,1-2.925-1.25,6.211,6.211,0,0,1-.825-3.45V27.492h6.6v-3.35h-6.6v-7.8H507.7l-0.5,7.8-3.8.25v3.1H507v13.3a10.11,10.11,0,0,0,1.55,5.85q1.549,2.25,5.4,2.25A10.065,10.065,0,0,0,516.4,48.592Zm20.026-.25a15.29,15.29,0,0,0,3.575-1.8l-1.5-2.7a10.983,10.983,0,0,1-2.775,1.35,10.447,10.447,0,0,1-3.275.5,7.911,7.911,0,0,1-4.05-1.075,7.512,7.512,0,0,1-2.925-3.175,11.327,11.327,0,0,1-1.075-5.2,12.259,12.259,0,0,1,1.025-5.45,6.821,6.821,0,0,1,2.625-2.975,6.428,6.428,0,0,1,3.25-.925,5.315,5.315,0,0,1,4.375,1.875,8.332,8.332,0,0,1,1.525,5.375h-14v3.25h17.5a5.984,5.984,0,0,0,.175-1.2q0.024-.6.025-1.25a15.068,15.068,0,0,0-1.1-6,8.779,8.779,0,0,0-3.275-3.975,9.416,9.416,0,0,0-5.275-1.425,9.9,9.9,0,0,0-5.3,1.55,11.886,11.886,0,0,0-4.1,4.4,13.676,13.676,0,0,0-1.6,6.8,14.1,14.1,0,0,0,1.55,6.875,10.938,10.938,0,0,0,4.225,4.35,11.753,11.753,0,0,0,5.925,1.525A13.355,13.355,0,0,0,536.423,48.342Zm14.174,0.1v-15.6a9.944,9.944,0,0,1,2.925-4.35,5.45,5.45,0,0,1,3.225-1.25,8.132,8.132,0,0,1,1.225.075,9.674,9.674,0,0,1,1.025.225l0.9-3.5a4.254,4.254,0,0,0-1.2-.4,8.648,8.648,0,0,0-1.4-.1,6.368,6.368,0,0,0-3.9,1.35,10.587,10.587,0,0,0-3,3.65h-0.15l-0.35-4.4h-3.4v24.3h4.1Zm21.55-.425a20.528,20.528,0,0,0,3.75-2.475h0.15l0.35,2.9h3.4v-14.9a14.6,14.6,0,0,0-.875-5.3,7.1,7.1,0,0,0-2.75-3.475,8.674,8.674,0,0,0-4.825-1.225,14.076,14.076,0,0,0-3.7.475,18.8,18.8,0,0,0-3.25,1.2,20.362,20.362,0,0,0-2.6,1.475l1.6,2.8a20.411,20.411,0,0,1,3.3-1.725,10.122,10.122,0,0,1,3.95-.775,4.882,4.882,0,0,1,3.05.85,4.377,4.377,0,0,1,1.525,2.25,11.272,11.272,0,0,1,.475,2.9q-7.8.851-11.4,2.95a6.757,6.757,0,0,0-3.6,6.2,6.9,6.9,0,0,0,.95,3.725,6.363,6.363,0,0,0,2.575,2.35,7.889,7.889,0,0,0,3.625.825A9.3,9.3,0,0,0,572.147,48.017ZM566,44.767a3.258,3.258,0,0,1-1.25-2.875,3.939,3.939,0,0,1,1.05-2.75,7.916,7.916,0,0,1,3.425-1.925,35.655,35.655,0,0,1,6.475-1.275v6.55a16.168,16.168,0,0,1-3.325,2.35,7.345,7.345,0,0,1-3.375.8A5.1,5.1,0,0,1,566,44.767Zm35,3.4a12.68,12.68,0,0,0,3.5-2.325l-1.8-2.5a8.8,8.8,0,0,1-2.5,1.65,7.609,7.609,0,0,1-3.15.65,6.773,6.773,0,0,1-3.95-1.175,7.747,7.747,0,0,1-2.65-3.275,11.648,11.648,0,0,1-.95-4.85,11.278,11.278,0,0,1,1-4.9,8.033,8.033,0,0,1,2.725-3.275,6.728,6.728,0,0,1,3.875-1.175,6.985,6.985,0,0,1,2.775.525A6.715,6.715,0,0,1,602,28.942l2.05-2.55a10.3,10.3,0,0,0-2.975-2.05,9.747,9.747,0,0,0-4.125-.8,11.613,11.613,0,0,0-5.775,1.5,11.233,11.233,0,0,0-4.3,4.35,13.825,13.825,0,0,0-1.625,6.95,14.534,14.534,0,0,0,1.5,6.85,10.557,10.557,0,0,0,4.1,4.35,11.491,11.491,0,0,0,5.85,1.5A10.4,10.4,0,0,0,601,48.167Zm18.05,0.425a11.6,11.6,0,0,0,2.15-.75l-0.9-2.9a5.137,5.137,0,0,1-1.4.475,7.659,7.659,0,0,1-1.35.125,3.24,3.24,0,0,1-2.925-1.25,6.211,6.211,0,0,1-.825-3.45V27.492h6.6v-3.35h-6.6v-7.8h-3.45l-0.5,7.8-3.8.25v3.1h3.6v13.3a10.1,10.1,0,0,0,1.55,5.85q1.549,2.25,5.4,2.25A10.065,10.065,0,0,0,619.047,48.592Zm10.5-.15v-24.3h-4.1v24.3h4.1Zm-0.075-30.05a2.6,2.6,0,0,0,.775-1.95,2.6,2.6,0,0,0-.775-1.95,2.975,2.975,0,0,0-3.95,0,2.591,2.591,0,0,0-.775,1.95,2.591,2.591,0,0,0,.775,1.95A2.975,2.975,0,0,0,629.472,18.392Zm17.974,30.05,8.6-24.3H652l-4.6,13.8q-0.5,1.751-1.1,3.575t-1.1,3.575H645l-1.125-3.575-1.125-3.575-4.6-13.8H633.9l8.75,24.3h4.8Zm27.025-.1a15.271,15.271,0,0,0,3.575-1.8l-1.5-2.7a10.95,10.95,0,0,1-2.775,1.35,10.442,10.442,0,0,1-3.275.5,7.911,7.911,0,0,1-4.05-1.075,7.525,7.525,0,0,1-2.925-3.175,11.327,11.327,0,0,1-1.075-5.2,12.273,12.273,0,0,1,1.025-5.45,6.821,6.821,0,0,1,2.625-2.975,6.431,6.431,0,0,1,3.25-.925,5.315,5.315,0,0,1,4.375,1.875,8.326,8.326,0,0,1,1.525,5.375h-14v3.25h17.5a5.984,5.984,0,0,0,.175-1.2q0.025-.6.025-1.25a15.068,15.068,0,0,0-1.1-6,8.773,8.773,0,0,0-3.275-3.975,9.414,9.414,0,0,0-5.275-1.425,9.9,9.9,0,0,0-5.3,1.55,11.894,11.894,0,0,0-4.1,4.4,13.676,13.676,0,0,0-1.6,6.8,14.116,14.116,0,0,0,1.55,6.875,10.944,10.944,0,0,0,4.225,4.35A11.753,11.753,0,0,0,670,49.042,13.351,13.351,0,0,0,674.471,48.342Z"/>
  <path id="Intelligence" class="cls-5" d="M227.547,97.924v-32.8H223.4v32.8h4.15Zm11.449,0v-17.6a21.032,21.032,0,0,1,3.325-2.8,6.012,6.012,0,0,1,3.325-.95,4.011,4.011,0,0,1,3.525,1.525,8.844,8.844,0,0,1,1.075,4.975v14.85h4.1v-15.4q0-4.65-1.775-7.075t-5.625-2.425A8.456,8.456,0,0,0,242.5,74.2a19.435,19.435,0,0,0-3.7,2.925h-0.15l-0.35-3.5h-3.4v24.3H239Zm32.1,0.15a11.6,11.6,0,0,0,2.15-.75l-0.9-2.9a5.137,5.137,0,0,1-1.4.475,7.659,7.659,0,0,1-1.35.125,3.24,3.24,0,0,1-2.925-1.25,6.211,6.211,0,0,1-.825-3.45V76.974h6.6v-3.35h-6.6v-7.8H262.4l-0.5,7.8-3.8.25v3.1h3.6v13.3a10.1,10.1,0,0,0,1.55,5.85q1.55,2.25,5.4,2.25A10.065,10.065,0,0,0,271.1,98.074Zm19.175-.25a15.271,15.271,0,0,0,3.575-1.8l-1.5-2.7a10.95,10.95,0,0,1-2.775,1.35,10.442,10.442,0,0,1-3.275.5,7.911,7.911,0,0,1-4.05-1.075,7.525,7.525,0,0,1-2.925-3.175,11.327,11.327,0,0,1-1.075-5.2,12.273,12.273,0,0,1,1.025-5.45A6.821,6.821,0,0,1,281.9,77.3a6.431,6.431,0,0,1,3.25-.925,5.315,5.315,0,0,1,4.375,1.875,8.326,8.326,0,0,1,1.525,5.375h-14v3.25h17.5a5.984,5.984,0,0,0,.175-1.2q0.025-.6.025-1.25a15.068,15.068,0,0,0-1.1-6,8.773,8.773,0,0,0-3.275-3.975,9.414,9.414,0,0,0-5.275-1.425,9.9,9.9,0,0,0-5.3,1.55,11.894,11.894,0,0,0-4.1,4.4,13.676,13.676,0,0,0-1.6,6.8,14.116,14.116,0,0,0,1.55,6.875A10.944,10.944,0,0,0,279.871,97a11.753,11.753,0,0,0,5.925,1.525A13.351,13.351,0,0,0,290.271,97.824Zm14.95,0.425a10.1,10.1,0,0,0,1.025-.275l-0.6-3.1c-0.2.034-.359,0.059-0.475,0.075a2.6,2.6,0,0,1-.375.025,1.117,1.117,0,0,1-.85-0.375,2.033,2.033,0,0,1-.35-1.375v-30.9h-4.1v30.6a8.662,8.662,0,0,0,.45,2.975,3.621,3.621,0,0,0,1.4,1.85,4.478,4.478,0,0,0,2.5.625A6.609,6.609,0,0,0,305.221,98.249Zm11.5,0a10.03,10.03,0,0,0,1.025-.275l-0.6-3.1c-0.2.034-.358,0.059-0.475,0.075a2.584,2.584,0,0,1-.375.025,1.12,1.12,0,0,1-.85-0.375,2.039,2.039,0,0,1-.35-1.375v-30.9H311v30.6a8.662,8.662,0,0,0,.45,2.975,3.626,3.626,0,0,0,1.4,1.85,4.483,4.483,0,0,0,2.5.625A6.6,6.6,0,0,0,316.72,98.249Zm9.875-.325v-24.3h-4.1v24.3h4.1Zm-0.075-30.05a2.841,2.841,0,0,0,0-3.9,2.975,2.975,0,0,0-3.95,0,2.841,2.841,0,0,0,0,3.9A2.975,2.975,0,0,0,326.52,67.874Zm21.8,40.075a10.546,10.546,0,0,0,4.275-3.075,6.556,6.556,0,0,0,1.5-4.15,4.878,4.878,0,0,0-2.125-4.425q-2.125-1.375-6.375-1.375h-4.7a5.56,5.56,0,0,1-3.375-.75,2.342,2.342,0,0,1-.925-1.9,2.812,2.812,0,0,1,.475-1.7,8.214,8.214,0,0,1,1.075-1.2,9.167,9.167,0,0,0,1.8.625,8.013,8.013,0,0,0,1.85.225,9.717,9.717,0,0,0,4.5-1.025,7.926,7.926,0,0,0,4.4-7.375,6.542,6.542,0,0,0-.575-2.85,6.245,6.245,0,0,0-1.475-2v-0.2h5.05v-3.15h-8.45a9.372,9.372,0,0,0-1.55-.425,10.311,10.311,0,0,0-6.425.875,8.55,8.55,0,0,0-3.35,3,8.216,8.216,0,0,0-1.275,4.6,7.444,7.444,0,0,0,1,3.85,10.777,10.777,0,0,0,2.15,2.7v0.2a8.675,8.675,0,0,0-1.775,1.8,4.7,4.7,0,0,0-.25,5.075,5.3,5.3,0,0,0,1.525,1.575v0.2a9.188,9.188,0,0,0-2.6,2.525,5.289,5.289,0,0,0-.95,2.975,5.188,5.188,0,0,0,1.275,3.55,8.084,8.084,0,0,0,3.55,2.225,16.2,16.2,0,0,0,5.225.775A16.673,16.673,0,0,0,348.319,107.949Zm-9.1-21.2a5.24,5.24,0,0,1-1.875-2.025,6.333,6.333,0,0,1-.7-3.05,5.592,5.592,0,0,1,1.5-4.175,5.254,5.254,0,0,1,7.3,0,5.592,5.592,0,0,1,1.5,4.175,6.333,6.333,0,0,1-.7,3.05,5.24,5.24,0,0,1-1.875,2.025A4.935,4.935,0,0,1,339.219,86.749Zm-2,18.375a3.5,3.5,0,0,1-1.875-3.1,4.345,4.345,0,0,1,.575-2.1,6.165,6.165,0,0,1,1.925-2,13.478,13.478,0,0,0,1.625.3,12.787,12.787,0,0,0,1.525.1h4.2a8.143,8.143,0,0,1,3.625.65,2.4,2.4,0,0,1,1.275,2.35,3.679,3.679,0,0,1-.975,2.4,6.836,6.836,0,0,1-2.7,1.85,10.67,10.67,0,0,1-4.025.7A9.89,9.89,0,0,1,337.219,105.124Zm33.951-7.3a15.31,15.31,0,0,0,3.575-1.8l-1.5-2.7a10.983,10.983,0,0,1-2.775,1.35,10.451,10.451,0,0,1-3.275.5,7.906,7.906,0,0,1-4.05-1.075,7.512,7.512,0,0,1-2.925-3.175,11.314,11.314,0,0,1-1.075-5.2,12.259,12.259,0,0,1,1.025-5.45A6.809,6.809,0,0,1,362.8,77.3a6.428,6.428,0,0,1,3.25-.925,5.316,5.316,0,0,1,4.375,1.875,8.332,8.332,0,0,1,1.525,5.375h-14v3.25h17.5a6.056,6.056,0,0,0,.175-1.2q0.024-.6.025-1.25a15.085,15.085,0,0,0-1.1-6,8.779,8.779,0,0,0-3.275-3.975A9.416,9.416,0,0,0,366,73.024a9.894,9.894,0,0,0-5.3,1.55,11.878,11.878,0,0,0-4.1,4.4,13.665,13.665,0,0,0-1.6,6.8,14.1,14.1,0,0,0,1.55,6.875A10.931,10.931,0,0,0,360.77,97a11.747,11.747,0,0,0,5.925,1.525A13.36,13.36,0,0,0,371.17,97.824Zm13.324,0.1v-17.6a20.988,20.988,0,0,1,3.325-2.8,6.01,6.01,0,0,1,3.325-.95,4.011,4.011,0,0,1,3.525,1.525,8.852,8.852,0,0,1,1.075,4.975v14.85h4.1v-15.4q0-4.65-1.775-7.075t-5.625-2.425a8.456,8.456,0,0,0-4.45,1.175,19.4,19.4,0,0,0-3.7,2.925h-0.15l-0.35-3.5h-3.4v24.3h4.1Zm35.95-.275a12.68,12.68,0,0,0,3.5-2.325l-1.8-2.5a8.8,8.8,0,0,1-2.5,1.65,7.609,7.609,0,0,1-3.15.65,6.773,6.773,0,0,1-3.95-1.175,7.747,7.747,0,0,1-2.65-3.275,11.648,11.648,0,0,1-.95-4.85,11.278,11.278,0,0,1,1-4.9,8.033,8.033,0,0,1,2.725-3.275,6.728,6.728,0,0,1,3.875-1.175,6.985,6.985,0,0,1,2.775.525,6.715,6.715,0,0,1,2.125,1.425l2.05-2.55a10.3,10.3,0,0,0-2.975-2.05,9.747,9.747,0,0,0-4.125-.8,11.613,11.613,0,0,0-5.775,1.5,11.233,11.233,0,0,0-4.3,4.35,13.825,13.825,0,0,0-1.625,6.95,14.534,14.534,0,0,0,1.5,6.85,10.557,10.557,0,0,0,4.1,4.35,11.491,11.491,0,0,0,5.85,1.5A10.4,10.4,0,0,0,420.444,97.649Zm20.875,0.175a15.31,15.31,0,0,0,3.575-1.8l-1.5-2.7a10.983,10.983,0,0,1-2.775,1.35,10.451,10.451,0,0,1-3.275.5,7.906,7.906,0,0,1-4.05-1.075,7.512,7.512,0,0,1-2.925-3.175,11.314,11.314,0,0,1-1.075-5.2,12.259,12.259,0,0,1,1.025-5.45,6.809,6.809,0,0,1,2.625-2.975,6.428,6.428,0,0,1,3.25-.925,5.316,5.316,0,0,1,4.375,1.875,8.332,8.332,0,0,1,1.525,5.375h-14v3.25h17.5a6.056,6.056,0,0,0,.175-1.2q0.024-.6.025-1.25a15.085,15.085,0,0,0-1.1-6,8.779,8.779,0,0,0-3.275-3.975,9.416,9.416,0,0,0-5.275-1.425,9.894,9.894,0,0,0-5.3,1.55,11.878,11.878,0,0,0-4.1,4.4,13.665,13.665,0,0,0-1.6,6.8,14.1,14.1,0,0,0,1.55,6.875A10.931,10.931,0,0,0,430.919,97a11.747,11.747,0,0,0,5.925,1.525A13.36,13.36,0,0,0,441.319,97.824Z"/>
  <path id="Laboratory" class="cls-5" d="M484.75,98.114v-3.55H470.4V65.314h-4.15v32.8h18.5Zm14.05-.425a20.528,20.528,0,0,0,3.75-2.475h0.15l0.35,2.9h3.4v-14.9a14.6,14.6,0,0,0-.875-5.3,7.1,7.1,0,0,0-2.75-3.475A8.674,8.674,0,0,0,498,73.214a14.076,14.076,0,0,0-3.7.475,18.8,18.8,0,0,0-3.25,1.2,20.362,20.362,0,0,0-2.6,1.475l1.6,2.8a20.411,20.411,0,0,1,3.3-1.725,10.122,10.122,0,0,1,3.95-.775,4.882,4.882,0,0,1,3.05.85,4.377,4.377,0,0,1,1.525,2.25,11.272,11.272,0,0,1,.475,2.9q-7.8.851-11.4,2.95a6.757,6.757,0,0,0-3.6,6.2,6.9,6.9,0,0,0,.95,3.725,6.363,6.363,0,0,0,2.575,2.35,7.889,7.889,0,0,0,3.625.825A9.3,9.3,0,0,0,498.8,97.689Zm-6.15-3.25a3.258,3.258,0,0,1-1.25-2.875,3.939,3.939,0,0,1,1.05-2.75,7.916,7.916,0,0,1,3.425-1.925,35.655,35.655,0,0,1,6.475-1.275v6.55a16.168,16.168,0,0,1-3.325,2.35,7.345,7.345,0,0,1-3.375.8A5.1,5.1,0,0,1,492.65,94.439Zm36.1,2.725a11.106,11.106,0,0,0,3.875-4.5,15.732,15.732,0,0,0,1.475-7.1,17.663,17.663,0,0,0-1.1-6.525,9.327,9.327,0,0,0-3.25-4.3,9.338,9.338,0,0,0-9.275-.55,16.6,16.6,0,0,0-3.625,2.425l0.1-4.4v-9.7h-4.1v35.6h3.3l0.35-2.5h0.15a14.18,14.18,0,0,0,3.45,2.275,8.371,8.371,0,0,0,3.5.825A9.326,9.326,0,0,0,528.75,97.164Zm-8.625-2.475a10.2,10.2,0,0,1-3.175-1.975V79.964a14.783,14.783,0,0,1,3.375-2.475,6.9,6.9,0,0,1,3.125-.825,5.732,5.732,0,0,1,3.7,1.125,6.443,6.443,0,0,1,2.05,3.15,15.317,15.317,0,0,1,.65,4.675,13.5,13.5,0,0,1-.9,5.175,7.572,7.572,0,0,1-2.475,3.325,5.907,5.907,0,0,1-3.575,1.15A8.242,8.242,0,0,1,520.125,94.689Zm34.125,2.525a11.178,11.178,0,0,0,4.125-4.35,13.962,13.962,0,0,0,1.575-6.85,14.188,14.188,0,0,0-1.575-6.95,11.178,11.178,0,0,0-4.125-4.35,10.971,10.971,0,0,0-11.075,0,11.109,11.109,0,0,0-4.15,4.35,14.188,14.188,0,0,0-1.575,6.95,13.962,13.962,0,0,0,1.575,6.85,11.109,11.109,0,0,0,4.15,4.35A10.971,10.971,0,0,0,554.25,97.214Zm-9.225-3.075a7.619,7.619,0,0,1-2.45-3.275,12.516,12.516,0,0,1-.875-4.85,12.851,12.851,0,0,1,.875-4.925,7.607,7.607,0,0,1,2.45-3.3,5.981,5.981,0,0,1,3.675-1.175,6.091,6.091,0,0,1,3.7,1.175,7.382,7.382,0,0,1,2.45,3.3,13.213,13.213,0,0,1,.85,4.925,12.867,12.867,0,0,1-.85,4.85,7.391,7.391,0,0,1-2.45,3.275,6.086,6.086,0,0,1-3.7,1.175A5.975,5.975,0,0,1,545.025,94.139ZM569.2,98.114v-15.6a9.944,9.944,0,0,1,2.925-4.35,5.45,5.45,0,0,1,3.225-1.25,8.132,8.132,0,0,1,1.225.075,9.62,9.62,0,0,1,1.025.225l0.9-3.5a4.254,4.254,0,0,0-1.2-.4,8.648,8.648,0,0,0-1.4-.1,6.368,6.368,0,0,0-3.9,1.35,10.587,10.587,0,0,0-3,3.65h-0.15l-0.35-4.4h-3.4v24.3h4.1Zm20.7-.425a20.528,20.528,0,0,0,3.75-2.475h0.15l0.35,2.9h3.4v-14.9a14.6,14.6,0,0,0-.875-5.3,7.089,7.089,0,0,0-2.75-3.475,8.672,8.672,0,0,0-4.825-1.225,14.081,14.081,0,0,0-3.7.475,18.8,18.8,0,0,0-3.25,1.2,20.362,20.362,0,0,0-2.6,1.475l1.6,2.8a20.5,20.5,0,0,1,3.3-1.725,10.122,10.122,0,0,1,3.95-.775,4.88,4.88,0,0,1,3.05.85,4.371,4.371,0,0,1,1.525,2.25,11.229,11.229,0,0,1,.475,2.9q-7.8.851-11.4,2.95a6.757,6.757,0,0,0-3.6,6.2,6.913,6.913,0,0,0,.95,3.725,6.369,6.369,0,0,0,2.575,2.35,7.892,7.892,0,0,0,3.625.825A9.3,9.3,0,0,0,589.9,97.689Zm-6.15-3.25a3.261,3.261,0,0,1-1.25-2.875,3.939,3.939,0,0,1,1.05-2.75,7.922,7.922,0,0,1,3.425-1.925,35.674,35.674,0,0,1,6.475-1.275v6.55a16.168,16.168,0,0,1-3.325,2.35,7.345,7.345,0,0,1-3.375.8A5.1,5.1,0,0,1,583.749,94.439Zm29.6,3.825a11.575,11.575,0,0,0,2.15-.75l-0.9-2.9a5.125,5.125,0,0,1-1.4.475,7.659,7.659,0,0,1-1.35.125,3.24,3.24,0,0,1-2.925-1.25,6.211,6.211,0,0,1-.825-3.45V77.164h6.6v-3.35h-6.6v-7.8h-3.45l-0.5,7.8-3.8.25v3.1h3.6v13.3a10.11,10.11,0,0,0,1.55,5.85q1.55,2.25,5.4,2.25A10.065,10.065,0,0,0,613.349,98.264Zm19.851-1.05a11.178,11.178,0,0,0,4.125-4.35,13.962,13.962,0,0,0,1.575-6.85,14.188,14.188,0,0,0-1.575-6.95,11.178,11.178,0,0,0-4.125-4.35,10.971,10.971,0,0,0-11.075,0,11.109,11.109,0,0,0-4.15,4.35,14.188,14.188,0,0,0-1.575,6.95,13.962,13.962,0,0,0,1.575,6.85,11.109,11.109,0,0,0,4.15,4.35A10.971,10.971,0,0,0,633.2,97.214Zm-9.225-3.075a7.619,7.619,0,0,1-2.45-3.275,12.516,12.516,0,0,1-.875-4.85,12.851,12.851,0,0,1,.875-4.925,7.607,7.607,0,0,1,2.45-3.3,5.981,5.981,0,0,1,3.675-1.175,6.091,6.091,0,0,1,3.7,1.175,7.382,7.382,0,0,1,2.45,3.3,13.213,13.213,0,0,1,.85,4.925,12.867,12.867,0,0,1-.85,4.85,7.391,7.391,0,0,1-2.45,3.275,6.086,6.086,0,0,1-3.7,1.175A5.975,5.975,0,0,1,623.975,94.139Zm24.174,3.975v-15.6a9.944,9.944,0,0,1,2.925-4.35,5.45,5.45,0,0,1,3.225-1.25,8.132,8.132,0,0,1,1.225.075,9.62,9.62,0,0,1,1.025.225l0.9-3.5a4.254,4.254,0,0,0-1.2-.4,8.648,8.648,0,0,0-1.4-.1,6.368,6.368,0,0,0-3.9,1.35,10.587,10.587,0,0,0-3,3.65H647.8l-0.35-4.4h-3.4v24.3h4.1Zm17.8,9.35a9.545,9.545,0,0,0,2.9-3.025,22.123,22.123,0,0,0,2.05-4.325l9.15-26.3h-4l-4.35,13.45q-0.45,1.6-.975,3.375t-1.075,3.475h-0.2q-0.55-1.7-1.15-3.5t-1.2-3.35l-4.95-13.45H657.9l9.75,24.35-0.55,1.8a10.435,10.435,0,0,1-2.075,3.725,4.393,4.393,0,0,1-3.425,1.475,5.178,5.178,0,0,1-.85-0.075,5.923,5.923,0,0,1-.9-0.225l-0.9,3.2a11.781,11.781,0,0,0,1.325.35A8.229,8.229,0,0,0,665.948,107.464Z"/>
</svg>
